HIERARCHY
ROOT HipCenter
{
    OFFSET 0.0 0.0 -0.0
    CHANNELS 6 Xposition Yposition Zposition Zrotation Xrotation Yrotation
    JOINT Spine
    {
        OFFSET 0.0 12.242720603942871 0.0
        CHANNELS 3 Zrotation Xrotation Yrotation
        JOINT ShoulderCenter
        {
            OFFSET 0.0 35.07554244995117 0.0
            CHANNELS 3 Zrotation Xrotation Yrotation
            JOINT LeftShoulder
            {
                OFFSET 18.598024368286133 0.0 0.0
                CHANNELS 3 Zrotation Xrotation Yrotation
                JOINT LeftElbow
                {
                    OFFSET 29.71725082397461 0.0 0.0
                    CHANNELS 3 Zrotation Xrotation Yrotation
                    JOINT LeftWrist
                    {
                        OFFSET 30.15835189819336 0.0 0.0
                        CHANNELS 3 Zrotation Xrotation Yrotation
                        JOINT LeftHand
                        {
                            OFFSET 4.082661151885986 0.0 0.0
                            CHANNELS 3 Zrotation Xrotation Yrotation
                            End Site
                            {
                                OFFSET 1.6330645084381104 0.0 0.0
                            }
                        }
                    }
                }
            }
            JOINT RightShoulder
            {
                OFFSET -18.598024368286133 0.0 0.0
                CHANNELS 3 Zrotation Xrotation Yrotation
                JOINT RightElbow
                {
                    OFFSET -29.71725082397461 0.0 0.0
                    CHANNELS 3 Zrotation Xrotation Yrotation
                    JOINT RightWrist
                    {
                        OFFSET -30.15835189819336 0.0 0.0
                        CHANNELS 3 Zrotation Xrotation Yrotation
                        JOINT RightHand
                        {
                            OFFSET -4.082661151885986 0.0 0.0
                            CHANNELS 3 Zrotation Xrotation Yrotation
                            End Site
                            {
                                OFFSET -1.6330645084381104 0.0 0.0
                            }
                        }
                    }
                }
            }
            End Site
            {
                OFFSET 0.0 14.030218124389648 0.0
            }
        }
    }
    JOINT LeftHip
    {
        OFFSET 15.674410820007324 0.0 0.0
        CHANNELS 3 Zrotation Xrotation Yrotation
        JOINT LeftKnee
        {
            OFFSET 0.0 -41.61096954345703 0.0
            CHANNELS 3 Zrotation Xrotation Yrotation
            JOINT LeftAnkle
            {
                OFFSET 0.0 -41.75005340576172 0.0
                CHANNELS 3 Zrotation Xrotation Yrotation
                JOINT LeftFoot
                {
                    OFFSET 0.0 -9.8743896484375 0.0
                    CHANNELS 3 Zrotation Xrotation Yrotation
                    End Site
                    {
                        OFFSET 0.0 0.0 3.949756145477295
                    }
                }
            }
        }
    }
    JOINT RightHip
    {
        OFFSET -15.674410820007324 0.0 0.0
        CHANNELS 3 Zrotation Xrotation Yrotation
        JOINT RightKnee
        {
            OFFSET 0.0 -41.61096954345703 0.0
            CHANNELS 3 Zrotation Xrotation Yrotation
            JOINT RightAnkle
            {
                OFFSET 0.0 -41.75005340576172 0.0
                CHANNELS 3 Zrotation Xrotation Yrotation
                JOINT RightFoot
                {
                    OFFSET 0.0 -9.8743896484375 0.0
                    CHANNELS 3 Zrotation Xrotation Yrotation
                    End Site
                    {
                        OFFSET 0.0 0.0 3.949756145477295
                    }
                }
            }
        }
    }
}
MOTION
Frames: 6
Frame Time: 0.03333333333333333
-112.30000305175781 -1.100000023841858 -3.299999952316284 -1.862663501388526 -1.5042549655012242e-08 95.79761471728327 2.6289412119558118 -0.0012592375909131557 0.00011244735597412416 -1.867438807891629e-08 -2.500462086748242e-07 -2.6183737237787756 92.37841402208933 -7.5110130641648505 177.2434508534271 -3.333154262752825e-06 2.708503278083984e-06 33.28598783597182 -179.99999813304115 -30.111822487851963 -124.91827602183537 0.0 0.0 1.5902773407317584e-15 -98.42366013282093 2.8141726187950016 -177.00688947629314 4.496338199625904e-06 -7.347072967020874e-06 -23.653154088231442 -3.904123506933724e-06 -9.379671303648344 -25.85486502735256 3.1805546814635168e-15 6.3611093629270335e-15 3.1805546814635168e-15 2.280697299041577 -11.888152361705538 -16.87622697523052 -1.0699204329000476 25.10813544791167 -25.30501586782463 88.71704888043266 -50.480439429983015 138.5006063897373 -7.951386703658792e-15 -2.2069531490250793e-31 3.1805546814635168e-15 4.038016090963322 -2.9751207337233376 21.8550618461897 3.3167692726701614 15.07467185806057 9.067264251204156 -76.31160630817064 -45.78933608656862 -112.6388702374505 0.0 0.0 0.0
-112.30000305175781 -1.0 -3.799999952316284 -2.346874445970427 5.0453931466525456e-08 95.76705304622413 2.3943159382811454 -0.6321477661530176 0.05561005060236485 -2.231657026116737e-07 5.0913280762012456e-08 -2.7865827999367996 92.55474929954109 -6.982475593731086 177.0780854047377 -3.449782531771014e-06 1.719724530679999e-06 33.43394394935224 -179.9999990765888 -29.32956180239806 -123.67451874722857 6.3611093629270335e-15 -6.3611093629270335e-15 -1.590277340731758e-15 -98.64731430644242 2.4928322427140603 -176.64515248971037 -5.818771286365975e-06 4.527265864609839e-06 -22.835099292894117 5.877210552096783e-06 -9.064571505641206 -25.896777041589935 0.0 0.0 3.180554681463516e-15 1.9370282228763533 -12.611174827067849 -16.43456477122743 -1.1185626967144564 25.49824170103024 -25.623167998796433 88.72571722346633 -50.423486040191385 138.3622161263736 1.1131941385122309e-14 -3.089734408635111e-31 -3.1805546814635168e-15 3.7570652460061043 -3.011627901851548 22.2531891196734 2.8698212962930447 14.376992436692904 8.83054537209038 -75.46117309493015 -46.38005519750517 -112.09615687995911 0.0 0.0 0.0
-112.30000305175781 -1.0 -4.400000095367432 -2.792730936986308 1.022135062730138e-07 95.22945497289388 2.1899628618268823 -1.196323937160988 0.09579923484781197 -2.3416796699393207e-08 -2.399077392090167e-07 -1.9701248150676829 92.39415132523709 -6.0461105868892355 177.11811131184334 1.3680507765077933e-07 -4.869257186338818e-07 33.09705407912653 179.99999443505965 -30.95631983295852 -123.14893741029768 6.3611093629270335e-15 -6.3611093629270335e-15 -6.3611093629270335e-15 -98.86570900935595 2.7414305517443327 -175.66267282060895 4.773392833517691e-06 8.474829653036837e-07 -22.815737860166262 -7.768276485740656e-07 -11.536468770257414 -24.86346594964358 3.1805546814635168e-15 6.3611093629270335e-15 3.1805546814635168e-15 1.6099544083567257 -12.844992923618873 -16.78871561227264 -1.405265854181414 25.49280730959615 -25.046212053003483 88.98029799810725 -49.94114786510396 138.2161804303505 3.1805546814635168e-15 0.0 0.0 3.4814208659957004 -3.2564459168365083 22.384536043136848 2.5196280319338706 14.251904797085594 8.898682263626636 -75.1173208116355 -46.88797606544212 -112.03257849509774 6.361109362927033e-15 3.531125038440127e-31 6.361109362927033e-15
-112.30000305175781 -0.8999999761581421 -4.800000190734863 -2.815585153107912 -0.4690596955812286 94.68302638340015 2.497624138424135 -1.2278111817545558 0.10013987786240414 1.0494820122931664e-07 2.2271332092548857e-07 -1.5896537795385717 92.56010258043723 -5.9495980011592255 177.11524635352583 5.006543614580303e-08 1.0559019193847285e-06 32.67169893718398 -179.9999954240109 -31.61878634482327 -121.86854730820252 -6.3611093629270335e-15 6.3611093629270335e-15 3.1805546814635168e-15 -98.80768447375046 4.044552046759387 -175.4927055582502 -1.613272597186314e-06 -5.007792716888544e-06 -22.267344014093368 -3.0697533737946935e-06 -8.272263283911926 -26.43854954234682 -3.1805546814635168e-15 -6.3611093629270335e-15 -3.1805546814635168e-15 1.9333087510196318 -12.736276878482514 -16.82208314829673 -1.6972603942726616 25.484145591948312 -24.780171868615913 89.22946498932288 -49.47224485089077 138.3895368786681 -4.770832022195275e-15 0.0 0.0 3.8285765612520968 -3.4119069916444666 22.489797774215127 2.4746421170503536 14.692372406507904 9.276891149158658 -79.3605817767299 -46.37859237618596 -117.86644298580649 -8.827812596100317e-32 3.180554681463516e-15 3.180554681463516e-15
-112.30000305175781 -0.8999999761581421 -5.299999713897705 -3.283848082173874 1.688458002464656e-08 94.64142393201537 1.6426449235550147 -1.9534485813483795 0.14689201072194055 -1.232769231634696e-07 -6.866455523905563e-08 -1.9046462674045135 92.72432121038447 -4.691523862394086 176.59300453197483 7.81972567689716e-07 2.1324951741856123e-07 32.23227200653093 179.99999781151914 -31.99856101179787 -124.20568892601784 -6.361109362927035e-15 -8.827812596100317e-32 1.5902773407317588e-15 -98.55957013561341 4.67366499841075 -175.42089749555677 -2.132902868319952e-06 -3.827579748261859e-06 -21.47427916253428 3.0605399281769047e-06 -6.638486146274447 -25.168126763369614 -3.1805546814635168e-15 -6.3611093629270335e-15 -3.1805546814635168e-15 1.1608200392731347 -13.143431133172323 -16.886292074546205 -1.7637411730551098 25.449749826614607 -24.698278887063168 89.21078559215421 -49.35786240202909 138.3749761371346 4.770832022195277e-15 3.1805546814635176e-15 -6.361109362927035e-15 3.3272109925646536 -3.8371789281965207 22.15971435900841 1.9314085219105106 14.778318707629808 9.377028001117177 -79.01347034652416 -46.818403707147546 -117.41003310607613 0.0 0.0 0.0
-112.30000305175781 -0.800000011920929 -5.699999809265137 -3.2572078308339822 -0.4650563398544378 94.64102000658187 1.9637026598578613 -1.784648168292842 0.12967759455377137 -1.6568463681424602e-07 -6.94635055895094e-08 -2.058582592554613 93.0502359659119 -5.320920636329576 176.7501216332081 8.749037682253214e-07 8.156699785163342e-07 31.588120605921375 179.9999997901178 -29.77020824004479 -122.2471519986967 -6.3611093629270335e-15 -2.648343778830095e-31 4.770832022195275e-15 -98.46519665278359 5.589448487180049 -175.80534846296433 -4.0122873412711144e-07 3.4059007942738453e-07 -20.688881391519402 1.4709766276386751e-06 -5.028496489049395 -26.590418318860337 -3.1805546814635168e-15 8.827812596100317e-32 -3.1805546814635168e-15 1.3476851311067783 -13.134112971891788 -16.342958468614622 -1.4773603639345922 25.342904885595654 -24.639996600127073 89.02933073463012 -49.966359927684906 138.00988689818237 1.5902773407317588e-15 -4.4139062980501586e-32 -3.1805546814635176e-15 3.643406114478451 -3.976232845938832 21.713043552207072 1.7486024435638983 15.27511814111735 9.846670496893724 -80.37535492486425 -47.06781381062506 -119.41309524693798 -6.3611093629270335e-15 3.1805546814635164e-15 6.3611093629270335e-15
